<svg width="69" height="68" viewBox="0 0 69 68" fill="none" xmlns="http://www.w3.org/2000/svg">
<path d="M60.4297 34.3881H68.34" stroke="black" stroke-width="4.21505"/>
<path d="M0 34.3881H43.5696" stroke="black" stroke-width="4.21505"/>
<path d="M26.4986 11.8657H68.34" stroke="black" stroke-width="4.21505"/>
<path d="M0 11.8657H9.66651" stroke="black" stroke-width="4.21505"/>
<path d="M38.385 56.9105H68.34" stroke="black" stroke-width="4.21505"/>
<path d="M0 56.9105H21.5249" stroke="black" stroke-width="4.21505"/>
<path d="M18.0826 19.8602C22.7384 19.8602 26.5127 16.0859 26.5127 11.4301C26.5127 6.77428 22.7384 3 18.0826 3C13.4267 3 9.65247 6.77428 9.65247 11.4301C9.65247 16.0859 13.4267 19.8602 18.0826 19.8602Z" stroke="black" stroke-width="4.21505"/>
<path d="M51.9996 42.8182C56.6555 42.8182 60.4297 39.0439 60.4297 34.3881C60.4297 29.7323 56.6555 25.958 51.9996 25.958C47.3438 25.958 43.5695 29.7323 43.5695 34.3881C43.5695 39.0439 47.3438 42.8182 51.9996 42.8182Z" stroke="black" stroke-width="4.21505"/>
<path d="M29.9549 65.3406C34.6108 65.3406 38.385 61.5663 38.385 56.9105C38.385 52.2547 34.6108 48.4804 29.9549 48.4804C25.2991 48.4804 21.5248 52.2547 21.5248 56.9105C21.5248 61.5663 25.2991 65.3406 29.9549 65.3406Z" stroke="black" stroke-width="4.21505"/>
</svg>
