<svg xmlns="http://www.w3.org/2000/svg" xmlns:xlink="http://www.w3.org/1999/xlink" width="500" zoomAndPan="magnify" viewBox="0 0 375 374.999991" height="500" preserveAspectRatio="xMidYMid meet" version="1.0"><defs><clipPath id="d5a140e9f8"><path d="M 65.074219 107.984375 L 230.175781 107.984375 L 230.175781 200.109375 L 65.074219 200.109375 Z M 65.074219 107.984375 " clip-rule="nonzero"/></clipPath><clipPath id="a1196c0692"><path d="M 4.285156 133.015625 L 371.253906 133.015625 L 371.253906 234.957031 L 4.285156 234.957031 Z M 4.285156 133.015625 " clip-rule="nonzero"/></clipPath><clipPath id="154ebb69ba"><path d="M 4.285156 181 L 371.253906 181 L 371.253906 242 L 4.285156 242 Z M 4.285156 181 " clip-rule="nonzero"/></clipPath><clipPath id="2358d4f38a"><path d="M 4.285156 175 L 150.429688 175 L 150.429688 236.789062 L 4.285156 236.789062 Z M 4.285156 175 " clip-rule="nonzero"/></clipPath><clipPath id="8538442794"><path d="M 4.285156 199.238281 L 80.792969 199.238281 L 80.792969 232.210938 L 4.285156 232.210938 Z M 4.285156 199.238281 " clip-rule="nonzero"/></clipPath><clipPath id="23dbfa59e2"><path d="M 272 218 L 341 218 L 341 267.011719 L 272 267.011719 Z M 272 218 " clip-rule="nonzero"/></clipPath><clipPath id="db6d490bc2"><path d="M 4.285156 182 L 371.253906 182 L 371.253906 242 L 4.285156 242 Z M 4.285156 182 " clip-rule="nonzero"/></clipPath></defs><g clip-path="url(#d5a140e9f8)"><path fill="#ee3ec9" d="M 230.175781 190.539062 C 230.175781 191.886719 230.144531 193.238281 230.078125 194.585938 C 230.011719 195.9375 229.910156 197.285156 229.777344 198.628906 C 229.644531 199.972656 229.480469 201.3125 229.28125 202.648438 C 229.085938 203.988281 228.851562 205.316406 228.589844 206.640625 C 228.328125 207.96875 228.03125 209.285156 227.703125 210.59375 C 227.375 211.90625 227.011719 213.207031 226.621094 214.5 C 226.230469 215.792969 225.804688 217.074219 225.351562 218.347656 C 224.894531 219.621094 224.410156 220.878906 223.890625 222.128906 C 223.375 223.375 222.828125 224.609375 222.25 225.832031 C 221.671875 227.054688 221.066406 228.261719 220.429688 229.453125 C 219.792969 230.644531 219.125 231.820312 218.429688 232.976562 C 217.738281 234.136719 217.015625 235.277344 216.261719 236.402344 C 215.511719 237.523438 214.734375 238.628906 213.929688 239.714844 C 213.125 240.796875 212.292969 241.863281 211.4375 242.90625 C 210.582031 243.953125 209.699219 244.972656 208.792969 245.976562 C 207.882812 246.976562 206.953125 247.953125 205.996094 248.910156 C 205.042969 249.867188 204.0625 250.796875 203.0625 251.703125 C 202.0625 252.609375 201.039062 253.492188 199.996094 254.351562 C 198.949219 255.207031 197.886719 256.039062 196.800781 256.84375 C 195.714844 257.648438 194.609375 258.425781 193.488281 259.175781 C 192.363281 259.925781 191.222656 260.648438 190.066406 261.34375 C 188.90625 262.039062 187.730469 262.703125 186.539062 263.339844 C 185.347656 263.976562 184.140625 264.585938 182.917969 265.164062 C 181.699219 265.742188 180.464844 266.289062 179.214844 266.804688 C 177.96875 267.320312 176.707031 267.808594 175.433594 268.261719 C 174.164062 268.71875 172.878906 269.140625 171.589844 269.535156 C 170.296875 269.925781 168.992188 270.285156 167.683594 270.613281 C 166.371094 270.941406 165.054688 271.238281 163.730469 271.503906 C 162.40625 271.765625 161.074219 271.996094 159.738281 272.195312 C 158.402344 272.394531 157.058594 272.558594 155.714844 272.691406 C 154.371094 272.824219 153.023438 272.921875 151.675781 272.988281 C 150.324219 273.054688 148.976562 273.089844 147.625 273.089844 C 146.273438 273.089844 144.921875 273.054688 143.574219 272.988281 C 142.222656 272.921875 140.878906 272.824219 139.53125 272.691406 C 138.1875 272.558594 136.847656 272.394531 135.511719 272.195312 C 134.175781 271.996094 132.84375 271.765625 131.519531 271.503906 C 130.195312 271.238281 128.875 270.941406 127.566406 270.613281 C 126.253906 270.285156 124.953125 269.925781 123.660156 269.535156 C 122.367188 269.140625 121.085938 268.71875 119.8125 268.261719 C 118.542969 267.808594 117.28125 267.320312 116.035156 266.804688 C 114.785156 266.289062 113.550781 265.742188 112.328125 265.164062 C 111.109375 264.585938 109.902344 263.976562 108.710938 263.339844 C 107.519531 262.703125 106.34375 262.039062 105.183594 261.34375 C 104.027344 260.648438 102.882812 259.925781 101.761719 259.175781 C 100.636719 258.425781 99.535156 257.648438 98.449219 256.84375 C 97.363281 256.039062 96.296875 255.207031 95.253906 254.351562 C 94.210938 253.492188 93.1875 252.609375 92.1875 251.703125 C 91.183594 250.796875 90.207031 249.867188 89.25 248.910156 C 88.296875 247.953125 87.363281 246.976562 86.457031 245.976562 C 85.550781 244.972656 84.667969 243.953125 83.8125 242.90625 C 82.953125 241.863281 82.125 240.796875 81.316406 239.714844 C 80.511719 238.628906 79.734375 237.523438 78.984375 236.402344 C 78.234375 235.277344 77.511719 234.136719 76.816406 232.976562 C 76.121094 231.820312 75.457031 230.644531 74.820312 229.453125 C 74.183594 228.261719 73.578125 227.054688 73 225.832031 C 72.421875 224.609375 71.875 223.375 71.355469 222.128906 C 70.839844 220.878906 70.355469 219.621094 69.898438 218.347656 C 69.441406 217.074219 69.019531 215.792969 68.628906 214.5 C 68.234375 213.207031 67.875 211.90625 67.546875 210.59375 C 67.21875 209.285156 66.921875 207.96875 66.660156 206.640625 C 66.394531 205.316406 66.164062 203.988281 65.964844 202.648438 C 65.769531 201.3125 65.601562 199.972656 65.46875 198.628906 C 65.335938 197.285156 65.238281 195.9375 65.171875 194.585938 C 65.105469 193.238281 65.074219 191.886719 65.074219 190.539062 C 65.074219 189.1875 65.105469 187.835938 65.171875 186.488281 C 65.238281 185.136719 65.335938 183.789062 65.46875 182.445312 C 65.601562 181.101562 65.769531 179.761719 65.964844 178.425781 C 66.164062 177.089844 66.394531 175.757812 66.660156 174.433594 C 66.921875 173.105469 67.21875 171.789062 67.546875 170.480469 C 67.875 169.167969 68.234375 167.867188 68.628906 166.574219 C 69.019531 165.28125 69.441406 164 69.898438 162.726562 C 70.355469 161.453125 70.839844 160.195312 71.355469 158.945312 C 71.875 157.699219 72.421875 156.464844 73 155.242188 C 73.578125 154.019531 74.183594 152.8125 74.820312 151.621094 C 75.457031 150.429688 76.121094 149.257812 76.816406 148.097656 C 77.511719 146.9375 78.234375 145.796875 78.984375 144.675781 C 79.734375 143.550781 80.511719 142.445312 81.316406 141.359375 C 82.125 140.277344 82.953125 139.210938 83.8125 138.167969 C 84.667969 137.121094 85.550781 136.101562 86.457031 135.097656 C 87.363281 134.097656 88.296875 133.121094 89.25 132.164062 C 90.207031 131.210938 91.183594 130.277344 92.1875 129.371094 C 93.1875 128.464844 94.210938 127.582031 95.253906 126.722656 C 96.296875 125.867188 97.363281 125.035156 98.449219 124.230469 C 99.535156 123.425781 100.636719 122.648438 101.761719 121.898438 C 102.882812 121.148438 104.027344 120.425781 105.183594 119.730469 C 106.34375 119.035156 107.519531 118.371094 108.710938 117.734375 C 109.902344 117.097656 111.109375 116.488281 112.328125 115.910156 C 113.550781 115.332031 114.785156 114.785156 116.035156 114.269531 C 117.28125 113.753906 118.542969 113.265625 119.8125 112.8125 C 121.085938 112.355469 122.367188 111.933594 123.660156 111.539062 C 124.953125 111.148438 126.253906 110.789062 127.566406 110.460938 C 128.875 110.132812 130.195312 109.835938 131.519531 109.570312 C 132.84375 109.308594 134.175781 109.078125 135.511719 108.878906 C 136.847656 108.679688 138.1875 108.515625 139.53125 108.382812 C 140.878906 108.25 142.222656 108.152344 143.574219 108.085938 C 144.921875 108.019531 146.273438 107.984375 147.625 107.984375 C 148.976562 107.984375 150.324219 108.019531 151.675781 108.085938 C 153.023438 108.152344 154.371094 108.25 155.714844 108.382812 C 157.058594 108.515625 158.402344 108.679688 159.738281 108.878906 C 161.074219 109.078125 162.40625 109.308594 163.730469 109.570312 C 165.054688 109.835938 166.371094 110.132812 167.683594 110.460938 C 168.992188 110.789062 170.296875 111.148438 171.589844 111.539062 C 172.878906 111.933594 174.164062 112.355469 175.433594 112.8125 C 176.707031 113.265625 177.96875 113.753906 179.214844 114.269531 C 180.464844 114.785156 181.699219 115.332031 182.917969 115.910156 C 184.140625 116.488281 185.347656 117.097656 186.539062 117.734375 C 187.730469 118.371094 188.90625 119.035156 190.066406 119.730469 C 191.222656 120.425781 192.363281 121.148438 193.488281 121.898438 C 194.609375 122.648438 195.714844 123.425781 196.800781 124.230469 C 197.886719 125.035156 198.949219 125.867188 199.996094 126.722656 C 201.039062 127.582031 202.0625 128.464844 203.0625 129.371094 C 204.0625 130.277344 205.042969 131.210938 205.996094 132.164062 C 206.953125 133.121094 207.882812 134.097656 208.792969 135.097656 C 209.699219 136.101562 210.582031 137.121094 211.4375 138.167969 C 212.292969 139.210938 213.125 140.277344 213.929688 141.359375 C 214.734375 142.445312 215.511719 143.550781 216.261719 144.675781 C 217.015625 145.796875 217.738281 146.9375 218.429688 148.097656 C 219.125 149.257812 219.792969 150.429688 220.429688 151.621094 C 221.066406 152.8125 221.671875 154.019531 222.25 155.242188 C 222.828125 156.464844 223.375 157.699219 223.890625 158.945312 C 224.410156 160.195312 224.894531 161.453125 225.351562 162.726562 C 225.804688 164 226.230469 165.28125 226.621094 166.574219 C 227.011719 167.867188 227.375 169.167969 227.703125 170.480469 C 228.03125 171.789062 228.328125 173.105469 228.589844 174.433594 C 228.851562 175.757812 229.085938 177.089844 229.28125 178.425781 C 229.480469 179.761719 229.644531 181.101562 229.777344 182.445312 C 229.910156 183.789062 230.011719 185.136719 230.078125 186.488281 C 230.144531 187.835938 230.175781 189.1875 230.175781 190.539062 Z M 230.175781 190.539062 " fill-opacity="1" fill-rule="nonzero"/></g><g clip-path="url(#a1196c0692)"><path fill="#4c0bd1" d="M 85.558594 234.660156 C 146.675781 234.660156 198.351562 168.355469 219.425781 174.402344 C 229.460938 177.242188 234.492188 173.441406 238.945312 169.648438 C 245.09375 164.390625 250.113281 159.132812 265.699219 171.46875 C 280.453125 183.144531 289.175781 168.761719 299.132812 154.382812 C 307.296875 142.59375 316.289062 130.808594 330.117188 133.363281 C 360.8125 139.050781 371.253906 199.675781 371.253906 199.675781 L 4.285156 199.675781 C 4.285156 199.675781 42.953125 234.660156 85.558594 234.660156 " fill-opacity="1" fill-rule="nonzero"/></g><g clip-path="url(#154ebb69ba)"><path fill="#e43397" d="M 17.113281 208.28125 C 45.882812 227.609375 84.183594 224.769531 109.75 201.414062 C 110.390625 200.773438 111.121094 200.222656 111.765625 199.675781 L 4.285156 199.675781 L 17.113281 208.28125 M 229.78125 219.824219 C 254.703125 244.640625 293.464844 248.949219 323.148438 230.171875 L 371.253906 199.675781 L 209.164062 199.675781 C 210.628906 200.957031 212.1875 202.328125 213.5625 203.703125 L 229.78125 219.824219 M 111.765625 199.675781 L 209.164062 199.675781 C 181.308594 175.953125 139.984375 175.769531 111.765625 199.675781 " fill-opacity="1" fill-rule="nonzero"/></g><g clip-path="url(#2358d4f38a)"><path fill="#00c4cc" d="M 132.601562 175.316406 C 138.246094 175.316406 144.070312 177.382812 150.066406 182.273438 L 150.339844 182.5 C 136.511719 184.371094 123.089844 190.085938 111.765625 199.675781 L 96.277344 199.675781 C 107.246094 186.597656 119.425781 175.308594 132.601562 175.316406 M 4.285156 199.675781 C 4.285156 199.675781 31.148438 223.980469 64.769531 232.074219 C 59.433594 235.304688 54.257812 236.65625 49.3125 236.65625 C 23.507812 236.65625 4.285156 199.675781 4.285156 199.675781 " fill-opacity="1" fill-rule="nonzero"/></g><g clip-path="url(#8538442794)"><path fill="#7900ff" d="M 4.285156 199.675781 L 17.113281 208.28125 C 29.867188 216.847656 44.492188 221.0625 59.050781 221.0625 C 66.351562 221.0625 73.648438 220 80.675781 217.894531 C 75.664062 223.367188 70.742188 228.140625 66.316406 231.089844 C 65.804688 231.433594 65.28125 231.761719 64.769531 232.074219 C 31.148438 223.980469 4.285156 199.675781 4.285156 199.675781 " fill-opacity="1" fill-rule="nonzero"/></g><path fill="#00c4cc" d="M 171.265625 199.675781 L 209.164062 199.675781 C 210.628906 200.957031 212.1875 202.328125 213.5625 203.703125 L 229.78125 219.824219 C 233.464844 223.496094 237.449219 226.714844 241.664062 229.480469 C 241.621094 229.496094 241.5625 229.515625 241.507812 229.53125 C 235.582031 231.457031 230.128906 232.335938 225.015625 232.335938 C 204.160156 232.335938 188.996094 217.722656 170.351562 200.308594 C 170.652344 200.097656 170.964844 199.886719 171.265625 199.675781 " fill-opacity="1" fill-rule="nonzero"/><path fill="#7900ff" d="M 169.671875 199.675781 L 171.265625 199.675781 C 170.964844 199.886719 170.652344 200.097656 170.351562 200.308594 C 170.121094 200.097656 169.902344 199.886719 169.671875 199.675781 " fill-opacity="1" fill-rule="nonzero"/><g clip-path="url(#23dbfa59e2)"><path fill="#00c4cc" d="M 340.96875 218.871094 C 328.398438 237.792969 321.253906 264.242188 301.617188 266.808594 C 300.523438 266.945312 299.480469 267.015625 298.480469 267.015625 C 286.410156 267.015625 281.121094 257.171875 275.6875 247.332031 C 274.503906 245.191406 273.324219 243.050781 272.050781 241.007812 C 275.675781 241.539062 279.332031 241.804688 283.003906 241.804688 C 296.851562 241.804688 310.789062 237.988281 323.148438 230.171875 L 340.96875 218.871094 " fill-opacity="1" fill-rule="nonzero"/></g><g clip-path="url(#db6d490bc2)"><path fill="#cb88ff" d="M 150.339844 182.5 C 157.375 188.289062 163.699219 194.160156 169.671875 199.675781 L 111.765625 199.675781 C 123.089844 190.085938 136.511719 184.371094 150.339844 182.5 M 4.285156 199.675781 L 96.277344 199.675781 C 91.304688 205.636719 85.945312 212.152344 80.675781 217.894531 C 73.648438 220 66.351562 221.0625 59.050781 221.0625 C 44.492188 221.0625 29.867188 216.847656 17.113281 208.28125 L 4.285156 199.675781 M 169.671875 199.675781 L 209.164062 199.675781 L 169.671875 199.675781 M 209.164062 199.675781 L 371.253906 199.675781 C 357.140625 199.675781 348.167969 208.039062 340.96875 218.871094 L 323.148438 230.171875 C 310.789062 237.988281 296.851562 241.804688 283.003906 241.804688 C 279.332031 241.804688 275.675781 241.539062 272.050781 241.007812 C 267.503906 233.671875 261.941406 227.652344 252.054688 227.652344 C 249.03125 227.652344 245.597656 228.21875 241.664062 229.480469 C 237.449219 226.714844 233.464844 223.496094 229.78125 219.824219 L 213.5625 203.703125 C 212.1875 202.328125 210.628906 200.957031 209.164062 199.675781 " fill-opacity="1" fill-rule="nonzero"/></g></svg>