<svg width="172" height="196" viewBox="0 0 172 196" fill="none" xmlns="http://www.w3.org/2000/svg">
<path d="M167.7 24.272L87.7 0.271983C86.8084 -0.00852373 85.863 -0.0732034 84.9415 0.0832701C84.0201 0.239744 83.149 0.612894 82.4 1.17198C81.6548 1.73087 81.05 2.45557 80.6334 3.2887C80.2169 4.12184 80 5.04051 80 5.97198V118.972C72.7705 111.039 62.9944 105.883 52.3644 104.398C41.7344 102.913 30.9197 105.192 21.7928 110.84C12.666 116.489 5.8016 125.151 2.38818 135.327C-1.02523 145.503 -0.772767 156.552 3.10187 166.562C6.97651 176.571 14.2294 184.911 23.6047 190.136C32.98 195.362 43.8875 197.144 54.4386 195.175C64.9897 193.206 74.5201 187.61 81.3797 179.354C88.2393 171.099 91.9962 160.705 92 149.972V62.072L164.3 83.672C165.192 83.9525 166.137 84.0172 167.058 83.8607C167.98 83.7042 168.851 83.3311 169.6 82.772C170.345 82.2131 170.95 81.4884 171.367 80.6553C171.783 79.8221 172 78.9035 172 77.972V29.972C172.005 28.6825 171.587 27.4271 170.81 26.3977C170.034 25.3683 168.941 24.6217 167.7 24.272ZM46 183.972C39.2754 183.972 32.7019 181.978 27.1106 178.242C21.5193 174.506 17.1615 169.196 14.5881 162.983C12.0147 156.771 11.3414 149.934 12.6533 143.339C13.9652 136.744 17.2034 130.685 21.9584 125.93C26.7134 121.175 32.7716 117.937 39.3669 116.625C45.9623 115.313 52.7986 115.987 59.0112 118.56C65.2239 121.133 70.534 125.491 74.27 131.083C78.0059 136.674 80 143.247 80 149.972C79.9736 158.981 76.383 167.614 70.0125 173.984C63.642 180.355 55.0092 183.946 46 183.972ZM160 69.872L92 49.472V14.072L160 34.472V69.872Z" fill="#00C4CC"/>
</svg>
