<svg xmlns="http://www.w3.org/2000/svg" xmlns:xlink="http://www.w3.org/1999/xlink" width="500" zoomAndPan="magnify" viewBox="0 0 375 374.999991" height="500" preserveAspectRatio="xMidYMid meet" version="1.0"><defs><g/><clipPath id="ce34fccddc"><path d="M 110.753906 116.042969 L 214.253906 116.042969 L 214.253906 173.792969 L 110.753906 173.792969 Z M 110.753906 116.042969 " clip-rule="nonzero"/></clipPath><clipPath id="9c633fba8d"><path d="M 72.644531 131.730469 L 302.691406 131.730469 L 302.691406 195.636719 L 72.644531 195.636719 Z M 72.644531 131.730469 " clip-rule="nonzero"/></clipPath><clipPath id="d105735f41"><path d="M 72.644531 162 L 302.691406 162 L 302.691406 200 L 72.644531 200 Z M 72.644531 162 " clip-rule="nonzero"/></clipPath><clipPath id="5b4756b1b3"><path d="M 72.644531 158 L 164.261719 158 L 164.261719 196.785156 L 72.644531 196.785156 Z M 72.644531 158 " clip-rule="nonzero"/></clipPath><clipPath id="6c4ca33d4e"><path d="M 72.644531 173.246094 L 120.609375 173.246094 L 120.609375 193.914062 L 72.644531 193.914062 Z M 72.644531 173.246094 " clip-rule="nonzero"/></clipPath><clipPath id="91b20855bf"><path d="M 240 185 L 284 185 L 284 215.730469 L 240 215.730469 Z M 240 185 " clip-rule="nonzero"/></clipPath><clipPath id="8121875b59"><path d="M 72.644531 162.339844 L 302.691406 162.339844 L 302.691406 200 L 72.644531 200 Z M 72.644531 162.339844 " clip-rule="nonzero"/></clipPath></defs><g clip-path="url(#ce34fccddc)"><path fill="#ee3ec9" d="M 214.253906 167.792969 C 214.253906 169.488281 214.167969 171.175781 214.003906 172.863281 C 213.835938 174.550781 213.589844 176.226562 213.257812 177.886719 C 212.929688 179.550781 212.515625 181.191406 212.023438 182.8125 C 211.53125 184.4375 210.960938 186.03125 210.3125 187.59375 C 209.664062 189.160156 208.941406 190.691406 208.140625 192.1875 C 207.34375 193.679688 206.472656 195.132812 205.53125 196.542969 C 204.589844 197.953125 203.582031 199.3125 202.507812 200.621094 C 201.429688 201.929688 200.292969 203.1875 199.09375 204.382812 C 197.898438 205.582031 196.644531 206.71875 195.332031 207.792969 C 194.023438 208.871094 192.664062 209.878906 191.253906 210.820312 C 189.84375 211.761719 188.390625 212.632812 186.898438 213.429688 C 185.402344 214.230469 183.871094 214.953125 182.308594 215.601562 C 180.742188 216.25 179.148438 216.820312 177.523438 217.3125 C 175.902344 217.804688 174.261719 218.214844 172.597656 218.546875 C 170.9375 218.878906 169.261719 219.125 167.574219 219.292969 C 165.886719 219.457031 164.199219 219.542969 162.503906 219.542969 C 160.808594 219.542969 159.117188 219.457031 157.429688 219.292969 C 155.742188 219.125 154.070312 218.878906 152.40625 218.546875 C 150.746094 218.214844 149.101562 217.804688 147.480469 217.3125 C 145.859375 216.820312 144.265625 216.25 142.699219 215.601562 C 141.132812 214.953125 139.601562 214.230469 138.109375 213.429688 C 136.613281 212.632812 135.160156 211.761719 133.753906 210.820312 C 132.34375 209.878906 130.984375 208.871094 129.671875 207.792969 C 128.363281 206.71875 127.109375 205.582031 125.910156 204.382812 C 124.710938 203.1875 123.574219 201.929688 122.5 200.621094 C 121.425781 199.3125 120.414062 197.953125 119.472656 196.542969 C 118.53125 195.132812 117.664062 193.679688 116.863281 192.1875 C 116.0625 190.691406 115.339844 189.160156 114.691406 187.59375 C 114.042969 186.03125 113.472656 184.4375 112.980469 182.8125 C 112.488281 181.191406 112.078125 179.550781 111.746094 177.886719 C 111.417969 176.226562 111.167969 174.550781 111.003906 172.863281 C 110.835938 171.175781 110.753906 169.488281 110.753906 167.792969 C 110.753906 166.097656 110.835938 164.40625 111.003906 162.71875 C 111.167969 161.03125 111.417969 159.359375 111.746094 157.695312 C 112.078125 156.035156 112.488281 154.390625 112.980469 152.769531 C 113.472656 151.148438 114.042969 149.554688 114.691406 147.988281 C 115.339844 146.421875 116.0625 144.890625 116.863281 143.398438 C 117.664062 141.902344 118.53125 140.449219 119.472656 139.039062 C 120.414062 137.632812 121.425781 136.273438 122.5 134.960938 C 123.574219 133.652344 124.710938 132.398438 125.910156 131.199219 C 127.109375 130 128.363281 128.863281 129.671875 127.789062 C 130.984375 126.714844 132.34375 125.703125 133.753906 124.761719 C 135.160156 123.820312 136.613281 122.949219 138.109375 122.152344 C 139.601562 121.351562 141.132812 120.628906 142.699219 119.980469 C 144.265625 119.332031 145.859375 118.761719 147.480469 118.269531 C 149.101562 117.777344 150.746094 117.367188 152.40625 117.035156 C 154.070312 116.707031 155.742188 116.457031 157.429688 116.289062 C 159.117188 116.125 160.808594 116.042969 162.503906 116.042969 C 164.199219 116.042969 165.886719 116.125 167.574219 116.289062 C 169.261719 116.457031 170.9375 116.707031 172.597656 117.035156 C 174.261719 117.367188 175.902344 117.777344 177.523438 118.269531 C 179.148438 118.761719 180.742188 119.332031 182.308594 119.980469 C 183.871094 120.628906 185.402344 121.351562 186.898438 122.152344 C 188.390625 122.949219 189.84375 123.820312 191.253906 124.761719 C 192.664062 125.703125 194.023438 126.714844 195.332031 127.789062 C 196.644531 128.863281 197.898438 130 199.09375 131.199219 C 200.292969 132.398438 201.429688 133.652344 202.507812 134.960938 C 203.582031 136.273438 204.589844 137.632812 205.53125 139.039062 C 206.472656 140.449219 207.34375 141.902344 208.140625 143.398438 C 208.941406 144.890625 209.664062 146.421875 210.3125 147.988281 C 210.960938 149.554688 211.53125 151.148438 212.023438 152.769531 C 212.515625 154.390625 212.929688 156.035156 213.257812 157.695312 C 213.589844 159.359375 213.835938 161.03125 214.003906 162.71875 C 214.167969 164.40625 214.253906 166.097656 214.253906 167.792969 Z M 214.253906 167.792969 " fill-opacity="1" fill-rule="nonzero"/></g><g clip-path="url(#9c633fba8d)"><path fill="#4c0bd1" d="M 123.59375 195.453125 C 161.90625 195.453125 194.304688 153.886719 207.515625 157.675781 C 213.804688 159.457031 216.957031 157.074219 219.75 154.695312 C 223.601562 151.402344 226.75 148.105469 236.519531 155.839844 C 245.769531 163.15625 251.238281 154.140625 257.480469 145.125 C 262.597656 137.738281 268.234375 130.347656 276.902344 131.949219 C 296.144531 135.515625 302.691406 173.519531 302.691406 173.519531 L 72.644531 173.519531 C 72.644531 173.519531 96.886719 195.453125 123.59375 195.453125 " fill-opacity="1" fill-rule="nonzero"/></g><g clip-path="url(#d105735f41)"><path fill="#e43397" d="M 80.6875 178.917969 C 98.722656 191.03125 122.734375 189.25 138.757812 174.609375 C 139.160156 174.207031 139.621094 173.863281 140.023438 173.519531 L 72.644531 173.519531 L 80.6875 178.917969 M 214.003906 186.152344 C 229.628906 201.707031 253.925781 204.410156 272.535156 192.640625 L 302.691406 173.519531 L 201.082031 173.519531 C 202 174.324219 202.976562 175.183594 203.839844 176.046875 L 214.003906 186.152344 M 140.023438 173.519531 L 201.082031 173.519531 C 183.621094 158.648438 157.714844 158.535156 140.023438 173.519531 " fill-opacity="1" fill-rule="nonzero"/></g><g clip-path="url(#5b4756b1b3)"><path fill="#00c4cc" d="M 153.085938 158.25 C 156.621094 158.25 160.277344 159.546875 164.03125 162.613281 L 164.203125 162.753906 C 155.539062 163.925781 147.121094 167.507812 140.023438 173.519531 L 130.316406 173.519531 C 137.191406 165.320312 144.824219 158.246094 153.085938 158.25 M 72.644531 173.519531 C 72.644531 173.519531 89.488281 188.757812 110.5625 193.832031 C 107.21875 195.855469 103.972656 196.703125 100.871094 196.703125 C 84.695312 196.703125 72.644531 173.519531 72.644531 173.519531 " fill-opacity="1" fill-rule="nonzero"/></g><g clip-path="url(#6c4ca33d4e)"><path fill="#7900ff" d="M 72.644531 173.519531 L 80.6875 178.917969 C 88.683594 184.285156 97.851562 186.925781 106.976562 186.925781 C 111.554688 186.925781 116.128906 186.261719 120.535156 184.941406 C 117.390625 188.371094 114.308594 191.367188 111.53125 193.214844 C 111.210938 193.429688 110.882812 193.636719 110.5625 193.832031 C 89.488281 188.757812 72.644531 173.519531 72.644531 173.519531 " fill-opacity="1" fill-rule="nonzero"/></g><path fill="#00c4cc" d="M 177.324219 173.519531 L 201.082031 173.519531 C 202 174.324219 202.976562 175.183594 203.839844 176.046875 L 214.003906 186.152344 C 216.3125 188.453125 218.8125 190.46875 221.453125 192.203125 C 221.425781 192.214844 221.390625 192.226562 221.355469 192.234375 C 217.640625 193.445312 214.222656 193.992188 211.019531 193.992188 C 197.945312 193.992188 188.4375 184.835938 176.75 173.917969 C 176.9375 173.785156 177.132812 173.652344 177.324219 173.519531 " fill-opacity="1" fill-rule="nonzero"/><path fill="#7900ff" d="M 176.324219 173.519531 L 177.324219 173.519531 C 177.132812 173.652344 176.9375 173.785156 176.75 173.917969 C 176.605469 173.785156 176.46875 173.652344 176.324219 173.519531 " fill-opacity="1" fill-rule="nonzero"/><g clip-path="url(#91b20855bf)"><path fill="#00c4cc" d="M 283.707031 185.554688 C 275.828125 197.417969 271.347656 213.996094 259.039062 215.605469 C 258.351562 215.691406 257.699219 215.734375 257.070312 215.734375 C 249.503906 215.734375 246.191406 209.566406 242.78125 203.394531 C 242.042969 202.054688 241.300781 200.710938 240.503906 199.429688 C 242.777344 199.765625 245.070312 199.929688 247.367188 199.929688 C 256.050781 199.929688 264.785156 197.539062 272.535156 192.640625 L 283.707031 185.554688 " fill-opacity="1" fill-rule="nonzero"/></g><g clip-path="url(#8121875b59)"><path fill="#cb88ff" d="M 164.203125 162.753906 C 168.617188 166.382812 172.578125 170.0625 176.324219 173.519531 L 140.023438 173.519531 C 147.121094 167.507812 155.539062 163.925781 164.203125 162.753906 M 72.644531 173.519531 L 130.316406 173.519531 C 127.195312 177.257812 123.835938 181.339844 120.535156 184.941406 C 116.128906 186.261719 111.554688 186.925781 106.976562 186.925781 C 97.851562 186.925781 88.683594 184.285156 80.6875 178.917969 L 72.644531 173.519531 M 176.324219 173.519531 L 201.082031 173.519531 L 176.324219 173.519531 M 201.082031 173.519531 L 302.691406 173.519531 C 293.84375 173.519531 288.21875 178.761719 283.707031 185.554688 L 272.535156 192.640625 C 264.785156 197.539062 256.050781 199.929688 247.367188 199.929688 C 245.070312 199.929688 242.777344 199.765625 240.503906 199.429688 C 237.652344 194.832031 234.167969 191.058594 227.96875 191.058594 C 226.074219 191.058594 223.917969 191.414062 221.453125 192.203125 C 218.8125 190.46875 216.3125 188.453125 214.003906 186.152344 L 203.839844 176.046875 C 202.976562 175.183594 202 174.324219 201.082031 173.519531 " fill-opacity="1" fill-rule="nonzero"/></g><g fill="#00c4cc" fill-opacity="1"><g transform="translate(83.316522, 248.54258)"><g><path d="M 28.453125 0 L 23.140625 0 L 23.09375 -15.4375 L 17.40625 -2.375 L 13.46875 -2.375 L 7.765625 -15.4375 L 7.765625 0 L 2.375 0 L 2.375 -23.78125 L 8.984375 -23.78125 L 15.4375 -9.640625 L 21.875 -23.78125 L 28.453125 -23.78125 Z M 28.453125 0 "/></g></g></g><g fill="#00c4cc" fill-opacity="1"><g transform="translate(114.177956, 248.54258)"><g><path d="M 20.15625 -18.28125 L 20.15625 0 L 14.28125 0 L 14.28125 -3.015625 C 13.039062 -0.847656 11.0625 0.234375 8.34375 0.234375 C 6.351562 0.234375 4.765625 -0.394531 3.578125 -1.65625 C 2.390625 -2.925781 1.796875 -4.625 1.796875 -6.75 L 1.796875 -18.28125 L 7.671875 -18.28125 L 7.671875 -8.40625 C 7.671875 -7.320312 7.945312 -6.46875 8.5 -5.84375 C 9.050781 -5.226562 9.789062 -4.921875 10.71875 -4.921875 C 11.820312 -4.941406 12.691406 -5.351562 13.328125 -6.15625 C 13.960938 -6.957031 14.28125 -7.992188 14.28125 -9.265625 L 14.28125 -18.28125 Z M 20.15625 -18.28125 "/></g></g></g><g fill="#00c4cc" fill-opacity="1"><g transform="translate(136.66272, 248.54258)"><g><path d="M 8.890625 -18.5625 C 11.578125 -18.5625 14.085938 -17.867188 16.421875 -16.484375 L 14.421875 -12.6875 C 12.160156 -13.90625 10.238281 -14.515625 8.65625 -14.515625 C 7.457031 -14.515625 6.859375 -14.097656 6.859375 -13.265625 C 6.859375 -12.804688 7.179688 -12.425781 7.828125 -12.125 C 8.484375 -11.820312 9.285156 -11.546875 10.234375 -11.296875 C 11.191406 -11.046875 12.140625 -10.734375 13.078125 -10.359375 C 14.015625 -9.984375 14.8125 -9.390625 15.46875 -8.578125 C 16.125 -7.765625 16.453125 -6.769531 16.453125 -5.59375 C 16.453125 -3.757812 15.738281 -2.328125 14.3125 -1.296875 C 12.882812 -0.273438 11.03125 0.234375 8.75 0.234375 C 5.519531 0.234375 2.785156 -0.625 0.546875 -2.34375 L 2.40625 -6.078125 C 4.550781 -4.554688 6.710938 -3.796875 8.890625 -3.796875 C 10.222656 -3.796875 10.890625 -4.210938 10.890625 -5.046875 C 10.890625 -5.523438 10.566406 -5.921875 9.921875 -6.234375 C 9.273438 -6.554688 8.488281 -6.84375 7.5625 -7.09375 C 6.632812 -7.34375 5.707031 -7.648438 4.78125 -8.015625 C 3.851562 -8.390625 3.066406 -8.972656 2.421875 -9.765625 C 1.773438 -10.554688 1.453125 -11.550781 1.453125 -12.75 C 1.453125 -14.582031 2.140625 -16.007812 3.515625 -17.03125 C 4.898438 -18.050781 6.691406 -18.5625 8.890625 -18.5625 Z M 8.890625 -18.5625 "/></g></g></g><g fill="#00c4cc" fill-opacity="1"><g transform="translate(154.060436, 248.54258)"><g><path d="M 3.0625 -25.765625 C 3.644531 -26.335938 4.390625 -26.625 5.296875 -26.625 C 6.203125 -26.625 6.941406 -26.335938 7.515625 -25.765625 C 8.085938 -25.191406 8.375 -24.453125 8.375 -23.546875 C 8.375 -22.640625 8.085938 -21.890625 7.515625 -21.296875 C 6.941406 -20.710938 6.203125 -20.421875 5.296875 -20.421875 C 4.390625 -20.421875 3.644531 -20.710938 3.0625 -21.296875 C 2.488281 -21.890625 2.203125 -22.640625 2.203125 -23.546875 C 2.203125 -24.453125 2.488281 -25.191406 3.0625 -25.765625 Z M 8.171875 0 L 2.34375 0 L 2.34375 -18.28125 L 8.171875 -18.28125 Z M 8.171875 0 "/></g></g></g><g fill="#00c4cc" fill-opacity="1"><g transform="translate(164.607582, 248.54258)"><g><path d="M 10.3125 -18.484375 C 12.125 -18.484375 13.734375 -18.125 15.140625 -17.40625 C 16.554688 -16.695312 17.660156 -15.691406 18.453125 -14.390625 L 14.25 -11.84375 C 13.34375 -13.101562 12.109375 -13.734375 10.546875 -13.734375 C 9.421875 -13.734375 8.5 -13.304688 7.78125 -12.453125 C 7.070312 -11.609375 6.71875 -10.5 6.71875 -9.125 C 6.71875 -7.71875 7.066406 -6.59375 7.765625 -5.75 C 8.460938 -4.90625 9.390625 -4.484375 10.546875 -4.484375 C 12.265625 -4.484375 13.507812 -5.171875 14.28125 -6.546875 L 18.5625 -4.03125 C 17.8125 -2.675781 16.71875 -1.628906 15.28125 -0.890625 C 13.84375 -0.160156 12.164062 0.203125 10.25 0.203125 C 7.414062 0.203125 5.132812 -0.648438 3.40625 -2.359375 C 1.675781 -4.066406 0.8125 -6.3125 0.8125 -9.09375 C 0.8125 -11.894531 1.6875 -14.160156 3.4375 -15.890625 C 5.195312 -17.617188 7.488281 -18.484375 10.3125 -18.484375 Z M 10.3125 -18.484375 "/></g></g></g><g fill="#00c4cc" fill-opacity="1"><g transform="translate(183.667066, 248.54258)"><g><path d="M 28.453125 0 L 23.140625 0 L 23.09375 -15.4375 L 17.40625 -2.375 L 13.46875 -2.375 L 7.765625 -15.4375 L 7.765625 0 L 2.375 0 L 2.375 -23.78125 L 8.984375 -23.78125 L 15.4375 -9.640625 L 21.875 -23.78125 L 28.453125 -23.78125 Z M 28.453125 0 "/></g></g></g><g fill="#00c4cc" fill-opacity="1"><g transform="translate(214.528499, 248.54258)"><g><path d="M 10.546875 -18.5625 C 13.054688 -18.5625 15.003906 -17.976562 16.390625 -16.8125 C 17.785156 -15.644531 18.492188 -14.019531 18.515625 -11.9375 L 18.515625 0 L 12.78125 0 L 12.78125 -2.109375 C 11.582031 -0.523438 9.71875 0.265625 7.1875 0.265625 C 5.269531 0.265625 3.742188 -0.265625 2.609375 -1.328125 C 1.484375 -2.390625 0.921875 -3.769531 0.921875 -5.46875 C 0.921875 -7.207031 1.523438 -8.554688 2.734375 -9.515625 C 3.941406 -10.472656 5.675781 -10.960938 7.9375 -10.984375 L 12.75 -10.984375 L 12.75 -11.265625 C 12.75 -12.171875 12.445312 -12.875 11.84375 -13.375 C 11.25 -13.882812 10.363281 -14.140625 9.1875 -14.140625 C 7.539062 -14.140625 5.722656 -13.632812 3.734375 -12.625 L 2.0625 -16.484375 C 5.03125 -17.867188 7.859375 -18.5625 10.546875 -18.5625 Z M 8.984375 -3.703125 C 9.910156 -3.703125 10.722656 -3.929688 11.421875 -4.390625 C 12.128906 -4.859375 12.570312 -5.460938 12.75 -6.203125 L 12.75 -7.84375 L 9.0625 -7.84375 C 7.289062 -7.84375 6.40625 -7.1875 6.40625 -5.875 C 6.40625 -5.1875 6.628906 -4.648438 7.078125 -4.265625 C 7.535156 -3.890625 8.171875 -3.703125 8.984375 -3.703125 Z M 8.984375 -3.703125 "/></g></g></g><g fill="#00c4cc" fill-opacity="1"><g transform="translate(234.876695, 248.54258)"><g><path d="M 12.984375 -5.046875 L 14.140625 -0.984375 C 12.722656 -0.148438 11.097656 0.265625 9.265625 0.265625 C 7.453125 0.265625 5.984375 -0.234375 4.859375 -1.234375 C 3.742188 -2.242188 3.1875 -3.675781 3.1875 -5.53125 L 3.1875 -13.609375 L 0.640625 -13.609375 L 0.640625 -17.4375 L 3.1875 -17.4375 L 3.1875 -22.53125 L 9.015625 -22.53125 L 9.015625 -17.46875 L 13.8125 -17.46875 L 13.8125 -13.609375 L 9.015625 -13.609375 L 9.015625 -6.4375 C 9.015625 -5.738281 9.15625 -5.222656 9.4375 -4.890625 C 9.726562 -4.566406 10.15625 -4.414062 10.71875 -4.4375 C 11.257812 -4.4375 12.015625 -4.640625 12.984375 -5.046875 Z M 12.984375 -5.046875 "/></g></g></g><g fill="#00c4cc" fill-opacity="1"><g transform="translate(249.629136, 248.54258)"><g><path d="M 10.3125 -18.484375 C 12.125 -18.484375 13.734375 -18.125 15.140625 -17.40625 C 16.554688 -16.695312 17.660156 -15.691406 18.453125 -14.390625 L 14.25 -11.84375 C 13.34375 -13.101562 12.109375 -13.734375 10.546875 -13.734375 C 9.421875 -13.734375 8.5 -13.304688 7.78125 -12.453125 C 7.070312 -11.609375 6.71875 -10.5 6.71875 -9.125 C 6.71875 -7.71875 7.066406 -6.59375 7.765625 -5.75 C 8.460938 -4.90625 9.390625 -4.484375 10.546875 -4.484375 C 12.265625 -4.484375 13.507812 -5.171875 14.28125 -6.546875 L 18.5625 -4.03125 C 17.8125 -2.675781 16.71875 -1.628906 15.28125 -0.890625 C 13.84375 -0.160156 12.164062 0.203125 10.25 0.203125 C 7.414062 0.203125 5.132812 -0.648438 3.40625 -2.359375 C 1.675781 -4.066406 0.8125 -6.3125 0.8125 -9.09375 C 0.8125 -11.894531 1.6875 -14.160156 3.4375 -15.890625 C 5.195312 -17.617188 7.488281 -18.484375 10.3125 -18.484375 Z M 10.3125 -18.484375 "/></g></g></g><g fill="#00c4cc" fill-opacity="1"><g transform="translate(268.688619, 248.54258)"><g><path d="M 14.515625 -18.5625 C 16.523438 -18.5625 18.140625 -17.921875 19.359375 -16.640625 C 20.585938 -15.359375 21.203125 -13.65625 21.203125 -11.53125 L 21.203125 0 L 15.328125 0 L 15.328125 -9.90625 C 15.328125 -10.96875 15.039062 -11.804688 14.46875 -12.421875 C 13.894531 -13.046875 13.109375 -13.359375 12.109375 -13.359375 C 10.972656 -13.359375 10.066406 -12.953125 9.390625 -12.140625 C 8.710938 -11.328125 8.375 -10.285156 8.375 -9.015625 L 8.375 0 L 2.515625 0 L 2.515625 -25.171875 L 8.375 -25.171875 L 8.375 -15.265625 C 9.664062 -17.410156 11.710938 -18.507812 14.515625 -18.5625 Z M 14.515625 -18.5625 "/></g></g></g><g fill="#e43397" fill-opacity="1"><g transform="translate(105.96926, 269.323526)"><g><path d="M 2.953125 -7.421875 C 2.617188 -7.421875 2.367188 -7.332031 2.203125 -7.15625 C 2.035156 -6.976562 1.953125 -6.710938 1.953125 -6.359375 L 1.953125 -5.6875 L 3.703125 -5.6875 L 3.703125 -5.03125 L 1.96875 -5.03125 L 1.96875 0 L 1.203125 0 L 1.203125 -5.03125 L 0.1875 -5.03125 L 0.1875 -5.6875 L 1.203125 -5.6875 L 1.203125 -6.390625 C 1.203125 -6.910156 1.347656 -7.320312 1.640625 -7.625 C 1.941406 -7.925781 2.367188 -8.078125 2.921875 -8.078125 C 3.140625 -8.078125 3.347656 -8.046875 3.546875 -7.984375 C 3.742188 -7.921875 3.914062 -7.832031 4.0625 -7.71875 L 3.796875 -7.140625 C 3.566406 -7.328125 3.285156 -7.421875 2.953125 -7.421875 Z M 2.953125 -7.421875 "/></g></g></g><g fill="#e43397" fill-opacity="1"><g transform="translate(109.63526, 269.323526)"><g><path d="M 1.078125 -5.6875 L 1.84375 -5.6875 L 1.84375 0 L 1.078125 0 Z M 1.453125 -6.9375 C 1.296875 -6.9375 1.160156 -6.988281 1.046875 -7.09375 C 0.941406 -7.195312 0.890625 -7.328125 0.890625 -7.484375 C 0.890625 -7.628906 0.941406 -7.753906 1.046875 -7.859375 C 1.160156 -7.960938 1.296875 -8.015625 1.453125 -8.015625 C 1.617188 -8.015625 1.753906 -7.960938 1.859375 -7.859375 C 1.960938 -7.753906 2.015625 -7.632812 2.015625 -7.5 C 2.015625 -7.332031 1.960938 -7.195312 1.859375 -7.09375 C 1.753906 -6.988281 1.617188 -6.9375 1.453125 -6.9375 Z M 1.453125 -6.9375 "/></g></g></g><g fill="#e43397" fill-opacity="1"><g transform="translate(112.544265, 269.323526)"><g><path d="M 3.96875 -5.734375 C 4.675781 -5.734375 5.238281 -5.523438 5.65625 -5.109375 C 6.082031 -4.691406 6.296875 -4.085938 6.296875 -3.296875 L 6.296875 0 L 5.53125 0 L 5.53125 -3.21875 C 5.53125 -3.8125 5.382812 -4.257812 5.09375 -4.5625 C 4.800781 -4.875 4.378906 -5.03125 3.828125 -5.03125 C 3.210938 -5.03125 2.726562 -4.847656 2.375 -4.484375 C 2.019531 -4.128906 1.84375 -3.628906 1.84375 -2.984375 L 1.84375 0 L 1.078125 0 L 1.078125 -5.6875 L 1.8125 -5.6875 L 1.8125 -4.640625 C 2.019531 -4.984375 2.304688 -5.25 2.671875 -5.4375 C 3.046875 -5.632812 3.476562 -5.734375 3.96875 -5.734375 Z M 3.96875 -5.734375 "/></g></g></g><g fill="#e43397" fill-opacity="1"><g transform="translate(119.865454, 269.323526)"><g><path d="M 6.265625 -8.015625 L 6.265625 0 L 5.53125 0 L 5.53125 -1.125 C 5.289062 -0.738281 4.984375 -0.445312 4.609375 -0.25 C 4.234375 -0.0507812 3.804688 0.046875 3.328125 0.046875 C 2.796875 0.046875 2.3125 -0.0703125 1.875 -0.3125 C 1.445312 -0.5625 1.109375 -0.90625 0.859375 -1.34375 C 0.617188 -1.78125 0.5 -2.28125 0.5 -2.84375 C 0.5 -3.40625 0.617188 -3.90625 0.859375 -4.34375 C 1.109375 -4.78125 1.445312 -5.117188 1.875 -5.359375 C 2.3125 -5.609375 2.796875 -5.734375 3.328125 -5.734375 C 3.785156 -5.734375 4.203125 -5.632812 4.578125 -5.4375 C 4.953125 -5.25 5.257812 -4.972656 5.5 -4.609375 L 5.5 -8.015625 Z M 3.390625 -0.625 C 3.785156 -0.625 4.144531 -0.710938 4.46875 -0.890625 C 4.789062 -1.078125 5.039062 -1.335938 5.21875 -1.671875 C 5.40625 -2.015625 5.5 -2.40625 5.5 -2.84375 C 5.5 -3.28125 5.40625 -3.664062 5.21875 -4 C 5.039062 -4.34375 4.789062 -4.601562 4.46875 -4.78125 C 4.144531 -4.96875 3.785156 -5.0625 3.390625 -5.0625 C 2.992188 -5.0625 2.632812 -4.96875 2.3125 -4.78125 C 1.988281 -4.601562 1.734375 -4.34375 1.546875 -4 C 1.367188 -3.664062 1.28125 -3.28125 1.28125 -2.84375 C 1.28125 -2.40625 1.367188 -2.015625 1.546875 -1.671875 C 1.734375 -1.335938 1.988281 -1.078125 2.3125 -0.890625 C 2.632812 -0.710938 2.992188 -0.625 3.390625 -0.625 Z M 3.390625 -0.625 "/></g></g></g><g fill="#e43397" fill-opacity="1"><g transform="translate(127.197453, 269.323526)"><g/></g></g><g fill="#e43397" fill-opacity="1"><g transform="translate(130.030767, 269.323526)"><g><path d="M 5.84375 -5.6875 L 3 0.6875 C 2.769531 1.21875 2.503906 1.59375 2.203125 1.8125 C 1.898438 2.039062 1.535156 2.15625 1.109375 2.15625 C 0.835938 2.15625 0.582031 2.109375 0.34375 2.015625 C 0.101562 1.929688 -0.0976562 1.800781 -0.265625 1.625 L 0.09375 1.0625 C 0.375 1.34375 0.71875 1.484375 1.125 1.484375 C 1.382812 1.484375 1.601562 1.410156 1.78125 1.265625 C 1.96875 1.128906 2.140625 0.890625 2.296875 0.546875 L 2.546875 -0.015625 L 0.015625 -5.6875 L 0.8125 -5.6875 L 2.953125 -0.859375 L 5.09375 -5.6875 Z M 5.84375 -5.6875 "/></g></g></g><g fill="#e43397" fill-opacity="1"><g transform="translate(135.892044, 269.323526)"><g><path d="M 3.390625 0.046875 C 2.847656 0.046875 2.351562 -0.0703125 1.90625 -0.3125 C 1.46875 -0.5625 1.125 -0.90625 0.875 -1.34375 C 0.625 -1.789062 0.5 -2.289062 0.5 -2.84375 C 0.5 -3.394531 0.625 -3.890625 0.875 -4.328125 C 1.125 -4.773438 1.46875 -5.117188 1.90625 -5.359375 C 2.351562 -5.609375 2.847656 -5.734375 3.390625 -5.734375 C 3.941406 -5.734375 4.4375 -5.609375 4.875 -5.359375 C 5.3125 -5.117188 5.65625 -4.773438 5.90625 -4.328125 C 6.15625 -3.890625 6.28125 -3.394531 6.28125 -2.84375 C 6.28125 -2.289062 6.15625 -1.789062 5.90625 -1.34375 C 5.65625 -0.90625 5.3125 -0.5625 4.875 -0.3125 C 4.4375 -0.0703125 3.941406 0.046875 3.390625 0.046875 Z M 3.390625 -0.625 C 3.796875 -0.625 4.160156 -0.710938 4.484375 -0.890625 C 4.804688 -1.078125 5.054688 -1.335938 5.234375 -1.671875 C 5.410156 -2.015625 5.5 -2.40625 5.5 -2.84375 C 5.5 -3.28125 5.410156 -3.664062 5.234375 -4 C 5.054688 -4.34375 4.804688 -4.601562 4.484375 -4.78125 C 4.160156 -4.96875 3.796875 -5.0625 3.390625 -5.0625 C 2.992188 -5.0625 2.632812 -4.96875 2.3125 -4.78125 C 1.988281 -4.601562 1.734375 -4.34375 1.546875 -4 C 1.367188 -3.664062 1.28125 -3.28125 1.28125 -2.84375 C 1.28125 -2.40625 1.367188 -2.015625 1.546875 -1.671875 C 1.734375 -1.335938 1.988281 -1.078125 2.3125 -0.890625 C 2.632812 -0.710938 2.992188 -0.625 3.390625 -0.625 Z M 3.390625 -0.625 "/></g></g></g><g fill="#e43397" fill-opacity="1"><g transform="translate(142.672525, 269.323526)"><g><path d="M 6.203125 -5.6875 L 6.203125 0 L 5.453125 0 L 5.453125 -1.03125 C 5.253906 -0.6875 4.976562 -0.421875 4.625 -0.234375 C 4.269531 -0.046875 3.867188 0.046875 3.421875 0.046875 C 2.671875 0.046875 2.082031 -0.15625 1.65625 -0.5625 C 1.226562 -0.976562 1.015625 -1.585938 1.015625 -2.390625 L 1.015625 -5.6875 L 1.78125 -5.6875 L 1.78125 -2.46875 C 1.78125 -1.863281 1.925781 -1.40625 2.21875 -1.09375 C 2.519531 -0.789062 2.945312 -0.640625 3.5 -0.640625 C 4.09375 -0.640625 4.5625 -0.820312 4.90625 -1.1875 C 5.25 -1.550781 5.421875 -2.054688 5.421875 -2.703125 L 5.421875 -5.6875 Z M 6.203125 -5.6875 "/></g></g></g><g fill="#e43397" fill-opacity="1"><g transform="translate(149.950455, 269.323526)"><g><path d="M 1.8125 -4.578125 C 1.988281 -4.953125 2.253906 -5.238281 2.609375 -5.4375 C 2.960938 -5.632812 3.40625 -5.734375 3.9375 -5.734375 L 3.9375 -4.984375 L 3.75 -5 C 3.15625 -5 2.6875 -4.8125 2.34375 -4.4375 C 2.007812 -4.070312 1.84375 -3.554688 1.84375 -2.890625 L 1.84375 0 L 1.078125 0 L 1.078125 -5.6875 L 1.8125 -5.6875 Z M 1.8125 -4.578125 "/></g></g></g><g fill="#e43397" fill-opacity="1"><g transform="translate(154.286932, 269.323526)"><g/></g></g><g fill="#e43397" fill-opacity="1"><g transform="translate(157.120245, 269.323526)"><g><path d="M 2.59375 0.046875 C 2.132812 0.046875 1.691406 -0.015625 1.265625 -0.140625 C 0.847656 -0.273438 0.519531 -0.445312 0.28125 -0.65625 L 0.625 -1.25 C 0.863281 -1.0625 1.160156 -0.90625 1.515625 -0.78125 C 1.878906 -0.664062 2.257812 -0.609375 2.65625 -0.609375 C 3.164062 -0.609375 3.546875 -0.691406 3.796875 -0.859375 C 4.046875 -1.023438 4.171875 -1.253906 4.171875 -1.546875 C 4.171875 -1.753906 4.101562 -1.914062 3.96875 -2.03125 C 3.832031 -2.15625 3.660156 -2.25 3.453125 -2.3125 C 3.242188 -2.375 2.960938 -2.429688 2.609375 -2.484375 C 2.148438 -2.566406 1.78125 -2.65625 1.5 -2.75 C 1.21875 -2.84375 0.976562 -2.992188 0.78125 -3.203125 C 0.582031 -3.421875 0.484375 -3.722656 0.484375 -4.109375 C 0.484375 -4.585938 0.679688 -4.976562 1.078125 -5.28125 C 1.472656 -5.582031 2.023438 -5.734375 2.734375 -5.734375 C 3.097656 -5.734375 3.460938 -5.679688 3.828125 -5.578125 C 4.203125 -5.484375 4.507812 -5.359375 4.75 -5.203125 L 4.40625 -4.578125 C 3.9375 -4.910156 3.378906 -5.078125 2.734375 -5.078125 C 2.242188 -5.078125 1.875 -4.988281 1.625 -4.8125 C 1.375 -4.632812 1.25 -4.40625 1.25 -4.125 C 1.25 -3.914062 1.316406 -3.742188 1.453125 -3.609375 C 1.597656 -3.484375 1.773438 -3.390625 1.984375 -3.328125 C 2.191406 -3.265625 2.484375 -3.203125 2.859375 -3.140625 C 3.304688 -3.046875 3.664062 -2.957031 3.9375 -2.875 C 4.21875 -2.789062 4.453125 -2.644531 4.640625 -2.4375 C 4.835938 -2.226562 4.9375 -1.9375 4.9375 -1.5625 C 4.9375 -1.070312 4.726562 -0.679688 4.3125 -0.390625 C 3.90625 -0.0976562 3.332031 0.046875 2.59375 0.046875 Z M 2.59375 0.046875 "/></g></g></g><g fill="#e43397" fill-opacity="1"><g transform="translate(162.408367, 269.323526)"><g><path d="M 3.390625 0.046875 C 2.847656 0.046875 2.351562 -0.0703125 1.90625 -0.3125 C 1.46875 -0.5625 1.125 -0.90625 0.875 -1.34375 C 0.625 -1.789062 0.5 -2.289062 0.5 -2.84375 C 0.5 -3.394531 0.625 -3.890625 0.875 -4.328125 C 1.125 -4.773438 1.46875 -5.117188 1.90625 -5.359375 C 2.351562 -5.609375 2.847656 -5.734375 3.390625 -5.734375 C 3.941406 -5.734375 4.4375 -5.609375 4.875 -5.359375 C 5.3125 -5.117188 5.65625 -4.773438 5.90625 -4.328125 C 6.15625 -3.890625 6.28125 -3.394531 6.28125 -2.84375 C 6.28125 -2.289062 6.15625 -1.789062 5.90625 -1.34375 C 5.65625 -0.90625 5.3125 -0.5625 4.875 -0.3125 C 4.4375 -0.0703125 3.941406 0.046875 3.390625 0.046875 Z M 3.390625 -0.625 C 3.796875 -0.625 4.160156 -0.710938 4.484375 -0.890625 C 4.804688 -1.078125 5.054688 -1.335938 5.234375 -1.671875 C 5.410156 -2.015625 5.5 -2.40625 5.5 -2.84375 C 5.5 -3.28125 5.410156 -3.664062 5.234375 -4 C 5.054688 -4.34375 4.804688 -4.601562 4.484375 -4.78125 C 4.160156 -4.96875 3.796875 -5.0625 3.390625 -5.0625 C 2.992188 -5.0625 2.632812 -4.96875 2.3125 -4.78125 C 1.988281 -4.601562 1.734375 -4.34375 1.546875 -4 C 1.367188 -3.664062 1.28125 -3.28125 1.28125 -2.84375 C 1.28125 -2.40625 1.367188 -2.015625 1.546875 -1.671875 C 1.734375 -1.335938 1.988281 -1.078125 2.3125 -0.890625 C 2.632812 -0.710938 2.992188 -0.625 3.390625 -0.625 Z M 3.390625 -0.625 "/></g></g></g><g fill="#e43397" fill-opacity="1"><g transform="translate(169.188848, 269.323526)"><g><path d="M 6.203125 -5.6875 L 6.203125 0 L 5.453125 0 L 5.453125 -1.03125 C 5.253906 -0.6875 4.976562 -0.421875 4.625 -0.234375 C 4.269531 -0.046875 3.867188 0.046875 3.421875 0.046875 C 2.671875 0.046875 2.082031 -0.15625 1.65625 -0.5625 C 1.226562 -0.976562 1.015625 -1.585938 1.015625 -2.390625 L 1.015625 -5.6875 L 1.78125 -5.6875 L 1.78125 -2.46875 C 1.78125 -1.863281 1.925781 -1.40625 2.21875 -1.09375 C 2.519531 -0.789062 2.945312 -0.640625 3.5 -0.640625 C 4.09375 -0.640625 4.5625 -0.820312 4.90625 -1.1875 C 5.25 -1.550781 5.421875 -2.054688 5.421875 -2.703125 L 5.421875 -5.6875 Z M 6.203125 -5.6875 "/></g></g></g><g fill="#e43397" fill-opacity="1"><g transform="translate(176.466778, 269.323526)"><g><path d="M 1.078125 -8.015625 L 1.84375 -8.015625 L 1.84375 0 L 1.078125 0 Z M 1.078125 -8.015625 "/></g></g></g><g fill="#e43397" fill-opacity="1"><g transform="translate(179.375783, 269.323526)"><g><path d="M 8.15625 -5.734375 C 8.875 -5.734375 9.4375 -5.523438 9.84375 -5.109375 C 10.25 -4.703125 10.453125 -4.097656 10.453125 -3.296875 L 10.453125 0 L 9.6875 0 L 9.6875 -3.21875 C 9.6875 -3.8125 9.539062 -4.257812 9.25 -4.5625 C 8.96875 -4.875 8.570312 -5.03125 8.0625 -5.03125 C 7.46875 -5.03125 7 -4.847656 6.65625 -4.484375 C 6.320312 -4.128906 6.15625 -3.628906 6.15625 -2.984375 L 6.15625 0 L 5.390625 0 L 5.390625 -3.21875 C 5.390625 -3.8125 5.242188 -4.257812 4.953125 -4.5625 C 4.671875 -4.875 4.265625 -5.03125 3.734375 -5.03125 C 3.148438 -5.03125 2.6875 -4.847656 2.34375 -4.484375 C 2.007812 -4.128906 1.84375 -3.628906 1.84375 -2.984375 L 1.84375 0 L 1.078125 0 L 1.078125 -5.6875 L 1.8125 -5.6875 L 1.8125 -4.65625 C 2.007812 -5 2.285156 -5.265625 2.640625 -5.453125 C 3.003906 -5.640625 3.421875 -5.734375 3.890625 -5.734375 C 4.367188 -5.734375 4.78125 -5.628906 5.125 -5.421875 C 5.476562 -5.222656 5.742188 -4.925781 5.921875 -4.53125 C 6.128906 -4.90625 6.425781 -5.195312 6.8125 -5.40625 C 7.207031 -5.625 7.65625 -5.734375 8.15625 -5.734375 Z M 8.15625 -5.734375 "/></g></g></g><g fill="#e43397" fill-opacity="1"><g transform="translate(190.849609, 269.323526)"><g><path d="M 6.203125 -5.6875 L 6.203125 0 L 5.453125 0 L 5.453125 -1.03125 C 5.253906 -0.6875 4.976562 -0.421875 4.625 -0.234375 C 4.269531 -0.046875 3.867188 0.046875 3.421875 0.046875 C 2.671875 0.046875 2.082031 -0.15625 1.65625 -0.5625 C 1.226562 -0.976562 1.015625 -1.585938 1.015625 -2.390625 L 1.015625 -5.6875 L 1.78125 -5.6875 L 1.78125 -2.46875 C 1.78125 -1.863281 1.925781 -1.40625 2.21875 -1.09375 C 2.519531 -0.789062 2.945312 -0.640625 3.5 -0.640625 C 4.09375 -0.640625 4.5625 -0.820312 4.90625 -1.1875 C 5.25 -1.550781 5.421875 -2.054688 5.421875 -2.703125 L 5.421875 -5.6875 Z M 6.203125 -5.6875 "/></g></g></g><g fill="#e43397" fill-opacity="1"><g transform="translate(198.127539, 269.323526)"><g><path d="M 2.59375 0.046875 C 2.132812 0.046875 1.691406 -0.015625 1.265625 -0.140625 C 0.847656 -0.273438 0.519531 -0.445312 0.28125 -0.65625 L 0.625 -1.25 C 0.863281 -1.0625 1.160156 -0.90625 1.515625 -0.78125 C 1.878906 -0.664062 2.257812 -0.609375 2.65625 -0.609375 C 3.164062 -0.609375 3.546875 -0.691406 3.796875 -0.859375 C 4.046875 -1.023438 4.171875 -1.253906 4.171875 -1.546875 C 4.171875 -1.753906 4.101562 -1.914062 3.96875 -2.03125 C 3.832031 -2.15625 3.660156 -2.25 3.453125 -2.3125 C 3.242188 -2.375 2.960938 -2.429688 2.609375 -2.484375 C 2.148438 -2.566406 1.78125 -2.65625 1.5 -2.75 C 1.21875 -2.84375 0.976562 -2.992188 0.78125 -3.203125 C 0.582031 -3.421875 0.484375 -3.722656 0.484375 -4.109375 C 0.484375 -4.585938 0.679688 -4.976562 1.078125 -5.28125 C 1.472656 -5.582031 2.023438 -5.734375 2.734375 -5.734375 C 3.097656 -5.734375 3.460938 -5.679688 3.828125 -5.578125 C 4.203125 -5.484375 4.507812 -5.359375 4.75 -5.203125 L 4.40625 -4.578125 C 3.9375 -4.910156 3.378906 -5.078125 2.734375 -5.078125 C 2.242188 -5.078125 1.875 -4.988281 1.625 -4.8125 C 1.375 -4.632812 1.25 -4.40625 1.25 -4.125 C 1.25 -3.914062 1.316406 -3.742188 1.453125 -3.609375 C 1.597656 -3.484375 1.773438 -3.390625 1.984375 -3.328125 C 2.191406 -3.265625 2.484375 -3.203125 2.859375 -3.140625 C 3.304688 -3.046875 3.664062 -2.957031 3.9375 -2.875 C 4.21875 -2.789062 4.453125 -2.644531 4.640625 -2.4375 C 4.835938 -2.226562 4.9375 -1.9375 4.9375 -1.5625 C 4.9375 -1.070312 4.726562 -0.679688 4.3125 -0.390625 C 3.90625 -0.0976562 3.332031 0.046875 2.59375 0.046875 Z M 2.59375 0.046875 "/></g></g></g><g fill="#e43397" fill-opacity="1"><g transform="translate(203.408909, 269.323526)"><g><path d="M 1.078125 -5.6875 L 1.84375 -5.6875 L 1.84375 0 L 1.078125 0 Z M 1.453125 -6.9375 C 1.296875 -6.9375 1.160156 -6.988281 1.046875 -7.09375 C 0.941406 -7.195312 0.890625 -7.328125 0.890625 -7.484375 C 0.890625 -7.628906 0.941406 -7.753906 1.046875 -7.859375 C 1.160156 -7.960938 1.296875 -8.015625 1.453125 -8.015625 C 1.617188 -8.015625 1.753906 -7.960938 1.859375 -7.859375 C 1.960938 -7.753906 2.015625 -7.632812 2.015625 -7.5 C 2.015625 -7.332031 1.960938 -7.195312 1.859375 -7.09375 C 1.753906 -6.988281 1.617188 -6.9375 1.453125 -6.9375 Z M 1.453125 -6.9375 "/></g></g></g><g fill="#e43397" fill-opacity="1"><g transform="translate(206.317914, 269.323526)"><g><path d="M 3.421875 0.046875 C 2.859375 0.046875 2.351562 -0.0703125 1.90625 -0.3125 C 1.46875 -0.5625 1.125 -0.90625 0.875 -1.34375 C 0.625 -1.789062 0.5 -2.289062 0.5 -2.84375 C 0.5 -3.394531 0.625 -3.890625 0.875 -4.328125 C 1.125 -4.773438 1.46875 -5.117188 1.90625 -5.359375 C 2.351562 -5.609375 2.859375 -5.734375 3.421875 -5.734375 C 3.910156 -5.734375 4.347656 -5.632812 4.734375 -5.4375 C 5.117188 -5.25 5.425781 -4.972656 5.65625 -4.609375 L 5.078125 -4.21875 C 4.890625 -4.5 4.648438 -4.707031 4.359375 -4.84375 C 4.078125 -4.988281 3.765625 -5.0625 3.421875 -5.0625 C 3.015625 -5.0625 2.644531 -4.96875 2.3125 -4.78125 C 1.988281 -4.601562 1.734375 -4.34375 1.546875 -4 C 1.367188 -3.664062 1.28125 -3.28125 1.28125 -2.84375 C 1.28125 -2.40625 1.367188 -2.015625 1.546875 -1.671875 C 1.734375 -1.335938 1.988281 -1.078125 2.3125 -0.890625 C 2.644531 -0.710938 3.015625 -0.625 3.421875 -0.625 C 3.765625 -0.625 4.078125 -0.691406 4.359375 -0.828125 C 4.648438 -0.960938 4.890625 -1.171875 5.078125 -1.453125 L 5.65625 -1.078125 C 5.425781 -0.703125 5.117188 -0.421875 4.734375 -0.234375 C 4.347656 -0.046875 3.910156 0.046875 3.421875 0.046875 Z M 3.421875 0.046875 "/></g></g></g><g fill="#e43397" fill-opacity="1"><g transform="translate(212.40629, 269.323526)"><g/></g></g><g fill="#e43397" fill-opacity="1"><g transform="translate(215.239603, 269.323526)"><g><path d="M 3.0625 -5.734375 C 3.800781 -5.734375 4.367188 -5.546875 4.765625 -5.171875 C 5.160156 -4.796875 5.359375 -4.25 5.359375 -3.53125 L 5.359375 0 L 4.625 0 L 4.625 -0.890625 C 4.457031 -0.585938 4.203125 -0.351562 3.859375 -0.1875 C 3.523438 -0.03125 3.128906 0.046875 2.671875 0.046875 C 2.035156 0.046875 1.53125 -0.101562 1.15625 -0.40625 C 0.78125 -0.707031 0.59375 -1.101562 0.59375 -1.59375 C 0.59375 -2.082031 0.765625 -2.472656 1.109375 -2.765625 C 1.460938 -3.066406 2.023438 -3.21875 2.796875 -3.21875 L 4.59375 -3.21875 L 4.59375 -3.5625 C 4.59375 -4.050781 4.457031 -4.421875 4.1875 -4.671875 C 3.914062 -4.929688 3.515625 -5.0625 2.984375 -5.0625 C 2.617188 -5.0625 2.269531 -5 1.9375 -4.875 C 1.613281 -4.757812 1.332031 -4.597656 1.09375 -4.390625 L 0.75 -4.96875 C 1.03125 -5.207031 1.375 -5.394531 1.78125 -5.53125 C 2.1875 -5.664062 2.613281 -5.734375 3.0625 -5.734375 Z M 2.796875 -0.546875 C 3.222656 -0.546875 3.59375 -0.644531 3.90625 -0.84375 C 4.21875 -1.039062 4.445312 -1.328125 4.59375 -1.703125 L 4.59375 -2.640625 L 2.8125 -2.640625 C 1.84375 -2.640625 1.359375 -2.300781 1.359375 -1.625 C 1.359375 -1.289062 1.484375 -1.023438 1.734375 -0.828125 C 1.984375 -0.640625 2.335938 -0.546875 2.796875 -0.546875 Z M 2.796875 -0.546875 "/></g></g></g><g fill="#e43397" fill-opacity="1"><g transform="translate(221.619958, 269.323526)"><g><path d="M 3.96875 -5.734375 C 4.675781 -5.734375 5.238281 -5.523438 5.65625 -5.109375 C 6.082031 -4.691406 6.296875 -4.085938 6.296875 -3.296875 L 6.296875 0 L 5.53125 0 L 5.53125 -3.21875 C 5.53125 -3.8125 5.382812 -4.257812 5.09375 -4.5625 C 4.800781 -4.875 4.378906 -5.03125 3.828125 -5.03125 C 3.210938 -5.03125 2.726562 -4.847656 2.375 -4.484375 C 2.019531 -4.128906 1.84375 -3.628906 1.84375 -2.984375 L 1.84375 0 L 1.078125 0 L 1.078125 -5.6875 L 1.8125 -5.6875 L 1.8125 -4.640625 C 2.019531 -4.984375 2.304688 -5.25 2.671875 -5.4375 C 3.046875 -5.632812 3.476562 -5.734375 3.96875 -5.734375 Z M 3.96875 -5.734375 "/></g></g></g><g fill="#e43397" fill-opacity="1"><g transform="translate(228.941147, 269.323526)"><g><path d="M 5.84375 -5.6875 L 3 0.6875 C 2.769531 1.21875 2.503906 1.59375 2.203125 1.8125 C 1.898438 2.039062 1.535156 2.15625 1.109375 2.15625 C 0.835938 2.15625 0.582031 2.109375 0.34375 2.015625 C 0.101562 1.929688 -0.0976562 1.800781 -0.265625 1.625 L 0.09375 1.0625 C 0.375 1.34375 0.71875 1.484375 1.125 1.484375 C 1.382812 1.484375 1.601562 1.410156 1.78125 1.265625 C 1.96875 1.128906 2.140625 0.890625 2.296875 0.546875 L 2.546875 -0.015625 L 0.015625 -5.6875 L 0.8125 -5.6875 L 2.953125 -0.859375 L 5.09375 -5.6875 Z M 5.84375 -5.6875 "/></g></g></g><g fill="#e43397" fill-opacity="1"><g transform="translate(234.802424, 269.323526)"><g><path d="M 9.421875 -5.6875 L 7.265625 0 L 6.546875 0 L 4.75 -4.65625 L 2.953125 0 L 2.234375 0 L 0.09375 -5.6875 L 0.828125 -5.6875 L 2.609375 -0.859375 L 4.4375 -5.6875 L 5.09375 -5.6875 L 6.90625 -0.859375 L 8.71875 -5.6875 Z M 9.421875 -5.6875 "/></g></g></g><g fill="#e43397" fill-opacity="1"><g transform="translate(244.308071, 269.323526)"><g><path d="M 3.96875 -5.734375 C 4.675781 -5.734375 5.238281 -5.523438 5.65625 -5.109375 C 6.082031 -4.691406 6.296875 -4.085938 6.296875 -3.296875 L 6.296875 0 L 5.53125 0 L 5.53125 -3.21875 C 5.53125 -3.8125 5.382812 -4.257812 5.09375 -4.5625 C 4.800781 -4.875 4.378906 -5.03125 3.828125 -5.03125 C 3.210938 -5.03125 2.726562 -4.847656 2.375 -4.484375 C 2.019531 -4.128906 1.84375 -3.628906 1.84375 -2.984375 L 1.84375 0 L 1.078125 0 L 1.078125 -8.015625 L 1.84375 -8.015625 L 1.84375 -4.6875 C 2.050781 -5.019531 2.335938 -5.273438 2.703125 -5.453125 C 3.066406 -5.640625 3.488281 -5.734375 3.96875 -5.734375 Z M 3.96875 -5.734375 "/></g></g></g><g fill="#e43397" fill-opacity="1"><g transform="translate(251.62926, 269.323526)"><g><path d="M 6.015625 -2.609375 L 1.265625 -2.609375 C 1.304688 -2.015625 1.53125 -1.535156 1.9375 -1.171875 C 2.351562 -0.804688 2.875 -0.625 3.5 -0.625 C 3.851562 -0.625 4.175781 -0.6875 4.46875 -0.8125 C 4.769531 -0.9375 5.03125 -1.125 5.25 -1.375 L 5.671875 -0.875 C 5.421875 -0.570312 5.101562 -0.34375 4.71875 -0.1875 C 4.34375 -0.03125 3.929688 0.046875 3.484375 0.046875 C 2.898438 0.046875 2.378906 -0.0703125 1.921875 -0.3125 C 1.472656 -0.5625 1.125 -0.90625 0.875 -1.34375 C 0.625 -1.789062 0.5 -2.289062 0.5 -2.84375 C 0.5 -3.394531 0.617188 -3.890625 0.859375 -4.328125 C 1.097656 -4.773438 1.425781 -5.117188 1.84375 -5.359375 C 2.269531 -5.609375 2.75 -5.734375 3.28125 -5.734375 C 3.800781 -5.734375 4.269531 -5.609375 4.6875 -5.359375 C 5.101562 -5.117188 5.429688 -4.78125 5.671875 -4.34375 C 5.910156 -3.90625 6.03125 -3.40625 6.03125 -2.84375 Z M 3.28125 -5.078125 C 2.726562 -5.078125 2.265625 -4.898438 1.890625 -4.546875 C 1.523438 -4.191406 1.316406 -3.734375 1.265625 -3.171875 L 5.296875 -3.171875 C 5.242188 -3.734375 5.03125 -4.191406 4.65625 -4.546875 C 4.289062 -4.898438 3.832031 -5.078125 3.28125 -5.078125 Z M 3.28125 -5.078125 "/></g></g></g><g fill="#e43397" fill-opacity="1"><g transform="translate(258.161014, 269.323526)"><g><path d="M 1.8125 -4.578125 C 1.988281 -4.953125 2.253906 -5.238281 2.609375 -5.4375 C 2.960938 -5.632812 3.40625 -5.734375 3.9375 -5.734375 L 3.9375 -4.984375 L 3.75 -5 C 3.15625 -5 2.6875 -4.8125 2.34375 -4.4375 C 2.007812 -4.070312 1.84375 -3.554688 1.84375 -2.890625 L 1.84375 0 L 1.078125 0 L 1.078125 -5.6875 L 1.8125 -5.6875 Z M 1.8125 -4.578125 "/></g></g></g><g fill="#e43397" fill-opacity="1"><g transform="translate(262.49749, 269.323526)"><g><path d="M 6.015625 -2.609375 L 1.265625 -2.609375 C 1.304688 -2.015625 1.53125 -1.535156 1.9375 -1.171875 C 2.351562 -0.804688 2.875 -0.625 3.5 -0.625 C 3.851562 -0.625 4.175781 -0.6875 4.46875 -0.8125 C 4.769531 -0.9375 5.03125 -1.125 5.25 -1.375 L 5.671875 -0.875 C 5.421875 -0.570312 5.101562 -0.34375 4.71875 -0.1875 C 4.34375 -0.03125 3.929688 0.046875 3.484375 0.046875 C 2.898438 0.046875 2.378906 -0.0703125 1.921875 -0.3125 C 1.472656 -0.5625 1.125 -0.90625 0.875 -1.34375 C 0.625 -1.789062 0.5 -2.289062 0.5 -2.84375 C 0.5 -3.394531 0.617188 -3.890625 0.859375 -4.328125 C 1.097656 -4.773438 1.425781 -5.117188 1.84375 -5.359375 C 2.269531 -5.609375 2.75 -5.734375 3.28125 -5.734375 C 3.800781 -5.734375 4.269531 -5.609375 4.6875 -5.359375 C 5.101562 -5.117188 5.429688 -4.78125 5.671875 -4.34375 C 5.910156 -3.90625 6.03125 -3.40625 6.03125 -2.84375 Z M 3.28125 -5.078125 C 2.726562 -5.078125 2.265625 -4.898438 1.890625 -4.546875 C 1.523438 -4.191406 1.316406 -3.734375 1.265625 -3.171875 L 5.296875 -3.171875 C 5.242188 -3.734375 5.03125 -4.191406 4.65625 -4.546875 C 4.289062 -4.898438 3.832031 -5.078125 3.28125 -5.078125 Z M 3.28125 -5.078125 "/></g></g></g></svg>