<svg xmlns="http://www.w3.org/2000/svg" xmlns:xlink="http://www.w3.org/1999/xlink" width="500" zoomAndPan="magnify" viewBox="0 0 375 374.999991" height="500" preserveAspectRatio="xMidYMid meet" version="1.0"><defs><clipPath id="ec14e6e9ca"><path d="M 70 22.175781 L 358 22.175781 L 358 215 L 70 215 Z M 70 22.175781 " clip-rule="nonzero"/></clipPath><clipPath id="366150e5de"><path d="M 17 91 L 306 91 L 306 352.925781 L 17 352.925781 Z M 17 91 " clip-rule="nonzero"/></clipPath></defs><g clip-path="url(#ec14e6e9ca)"><path fill="#00e4e3" d="M 357.734375 93.464844 L 357.734375 149.714844 C 357.734375 178.113281 341.140625 202.632812 317.117188 214.089844 L 317.117188 162.433594 C 317.117188 116.652344 279.863281 79.394531 234.078125 79.394531 L 88.613281 79.394531 C 82.476562 79.394531 76.496094 80.0625 70.738281 81.332031 C 76.484375 47.742188 105.746094 22.175781 140.980469 22.175781 L 286.445312 22.175781 C 325.816406 22.175781 357.734375 54.089844 357.734375 93.464844 Z M 357.734375 93.464844 " fill-opacity="1" fill-rule="nonzero"/></g><g clip-path="url(#366150e5de)"><path fill="#a060ff" d="M 234.078125 91.148438 L 88.601562 91.148438 C 49.242188 91.148438 17.324219 123.070312 17.324219 162.433594 L 17.324219 218.6875 C 17.324219 258.0625 49.242188 289.972656 88.601562 289.972656 L 94.898438 289.972656 L 94.898438 352.914062 L 103.925781 343.886719 C 138.441406 309.367188 185.261719 289.972656 234.066406 289.972656 C 273.4375 289.972656 305.34375 258.050781 305.34375 218.6875 L 305.34375 162.433594 C 305.355469 123.070312 273.449219 91.148438 234.078125 91.148438 Z M 234.078125 91.148438 " fill-opacity="1" fill-rule="nonzero"/></g></svg>