<svg width="69" height="69" viewBox="0 0 69 69" fill="none" xmlns="http://www.w3.org/2000/svg">
<path d="M61.7148 52.8306C59.8842 51.1987 58.2816 49.3279 56.95 47.2685C55.4963 44.4258 54.625 41.3215 54.3873 38.1375V28.7597C54.3998 23.7588 52.5858 18.9254 49.2859 15.1676C45.9861 11.4099 41.4276 8.98644 36.467 8.35266V5.90381C36.467 5.23168 36.2 4.58708 35.7247 4.11181C35.2494 3.63654 34.6048 3.36954 33.9327 3.36954C33.2606 3.36954 32.616 3.63654 32.1407 4.11181C31.6654 4.58708 31.3984 5.23168 31.3984 5.90381V8.39063C26.4822 9.0701 21.9788 11.5082 18.7224 15.2533C15.4659 18.9984 13.677 23.7968 13.687 28.7597V38.1375C13.4492 41.3215 12.5779 44.4258 11.1242 47.2685C9.81606 49.3232 8.23914 51.1938 6.43535 52.8306C6.23286 53.0085 6.07057 53.2275 5.95928 53.473C5.84799 53.7185 5.79026 53.9848 5.78992 54.2544V56.8361C5.78992 57.3396 5.98992 57.8224 6.34593 58.1784C6.70193 58.5344 7.18478 58.7344 7.68825 58.7344H60.4619C60.9654 58.7344 61.4482 58.5344 61.8042 58.1784C62.1602 57.8224 62.3602 57.3396 62.3602 56.8361V54.2544C62.3599 53.9848 62.3022 53.7185 62.1909 53.473C62.0796 53.2275 61.9173 53.0085 61.7148 52.8306ZM9.73845 54.9378C11.5047 53.2316 13.0598 51.3195 14.3704 49.2428C16.2015 45.8096 17.27 42.0216 17.5026 38.1375V28.7597C17.4273 26.535 17.8005 24.3178 18.6 22.2402C19.3994 20.1627 20.6087 18.2672 22.1559 16.6668C23.7031 15.0663 25.5566 13.7936 27.6059 12.9244C29.6552 12.0551 31.8585 11.6072 34.0846 11.6072C36.3106 11.6072 38.5139 12.0551 40.5632 12.9244C42.6126 13.7936 44.466 15.0663 46.0132 16.6668C47.5604 18.2672 48.7698 20.1627 49.5692 22.2402C50.3686 24.3178 50.7418 26.535 50.6665 28.7597V38.1375C50.8992 42.0216 51.9676 45.8096 53.7988 49.2428C55.1094 51.3195 56.6645 53.2316 58.4307 54.9378H9.73845Z" fill="black"/>
<path d="M34.17 65.0749C35.3658 65.0473 36.5134 64.5978 37.4097 63.8057C38.306 63.0136 38.8933 61.93 39.0677 60.7467H29.0825C29.2618 61.9622 29.8766 63.0712 30.8124 63.8674C31.7483 64.6635 32.9414 65.0926 34.17 65.0749Z" fill="black"/>
</svg>
