<svg width="73" height="73" viewBox="0 0 73 73" fill="none" xmlns="http://www.w3.org/2000/svg">
<path d="M2 36.17H70.34" stroke="#00C4CC" stroke-width="3.79667"/>
<path d="M7.12549 55.1533H65.2145" stroke="#00C4CC" stroke-width="3.79667"/>
<path d="M7.12549 17.1867H64.7323" stroke="#00C4CC" stroke-width="3.79667"/>
<path d="M36.17 70.1881H36.0941C25.957 62.1012 19.5026 49.9937 19.5026 36.4737C19.5026 22.9576 26.0329 10.8462 36.17 2.75934C46.3071 10.8462 52.8753 22.9576 52.8753 36.4737C52.8753 49.9937 46.3071 62.1012 36.17 70.1881Z" stroke="#00C4CC" stroke-width="3.79667"/>
<path d="M36.17 70.34C55.0416 70.34 70.34 55.0416 70.34 36.17C70.34 17.2984 55.0416 2 36.17 2C17.2984 2 2 17.2984 2 36.17C2 55.0416 17.2984 70.34 36.17 70.34Z" stroke="#00C4CC" stroke-width="3.79667"/>
</svg>
