<svg width="69" height="69" viewBox="0 0 69 69" fill="none" xmlns="http://www.w3.org/2000/svg">
<path d="M66.0049 54.6314L54.4606 43.0871L45.581 39.4186C48.5376 35.214 50.1216 30.198 50.1159 25.0579C50.1159 11.2409 38.875 0 25.0579 0C11.2409 0 0 11.2409 0 25.0579C0 38.875 11.2409 50.1159 25.0579 50.1159C30.2427 50.1218 35.3002 48.5104 39.5259 45.5062L43.1849 54.3619L54.7288 65.9068C55.4692 66.6472 56.3481 67.2345 57.3154 67.6352C58.2828 68.036 59.3196 68.2422 60.3666 68.2423C61.4137 68.2423 62.4505 68.0361 63.4178 67.6354C64.3852 67.2348 65.2641 66.6475 66.0045 65.9072C66.7449 65.1668 67.3323 64.2879 67.733 63.3205C68.1337 62.3532 68.34 61.3164 68.34 60.2694C68.34 59.2223 68.1338 58.1855 67.7332 57.2182C67.3325 56.2508 66.7452 55.3718 66.0049 54.6314ZM4.55599 25.0579C4.55599 13.7534 13.7534 4.55599 25.0579 4.55599C36.3625 4.55599 45.5599 13.7534 45.5599 25.0579C45.5599 36.3625 36.3625 45.5599 25.0579 45.5599C13.7534 45.5599 4.55599 36.3625 4.55599 25.0579ZM62.7831 62.6853C62.1418 63.3252 61.2728 63.6845 60.3669 63.6845C59.4609 63.6845 58.5919 63.3252 57.9506 62.6853L47.0487 51.7834L43.6468 43.5491L51.8813 46.951L62.7834 57.853C63.4232 58.4943 63.7825 59.3633 63.7824 60.2692C63.7823 61.1751 63.423 62.044 62.7831 62.6853Z" fill="black"/>
</svg>
